<!--?xml version="1.0" encoding="utf-8"?-->
<!-- Generator: Adobe Illustrator 24.1.1, SVG Export Plug-In . SVG Version: 6.00 Build 0)  -->
<svg version="1.1" id="_x31_0" xmlns="http://www.w3.org/2000/svg" xmlns:xlink="http://www.w3.org/1999/xlink" x="0px" y="0px" viewBox="0 0 512 512" style="width: 64px; height: 64px; opacity: 1;" xml:space="preserve">
<style type="text/css">
	.st0{fill:#374149;}
</style>
<g>
	<path class="st0" d="M507.564,27.855c-2.75-2.828-6.722-4.508-10.851-4.508H14.214l-1.226,0.234
		c-5.117,0.758-9.777,4.199-11.766,9.242L0.766,33.82L0.23,36.339L0,37.488v16.734h0.074v319.881
		C0,378.38,1.832,382.435,4.66,385.263c2.828,2.825,6.805,4.582,11.156,4.582h212.14V410.4h-6.805l-1.91,0.305l-85.128,14.214
		h-0.305l-0.23,0.078c-9.629,1.832-17.348,9.168-19.562,18.645c-2.137,9.246,1.145,18.953,8.48,24.91l12.309,10.242l3.969,3.289
		l7.949,6.57l10.165-1.606l70.609-11.082h28.578l27.89-0.078l71.226,11.16l10.164,1.606l8.02-6.57l3.824-3.21l12.606-10.469
		c7.183-5.887,10.472-15.742,8.179-25.066c-2.371-9.321-10.011-16.582-19.488-18.34l-0.305-0.078h-0.23l-85.894-14.214l-1.832-0.305
		h-6.113v-20.554h212.135c4.352,0,8.329-1.758,11.157-4.582c2.828-2.828,4.66-6.882,4.586-11.16V38.632
		C512.072,34.581,510.392,30.608,507.564,27.855z M53.644,89.752c0-2.902,2.371-5.343,5.348-5.343h122.574
		c4.82,0,7.183,5.805,3.82,9.164L62.816,216.147c-3.438,3.442-9.172,0.996-9.172-3.742V89.752z M288.323,433.325l85.89,14.211
		c1.606,0.309,2.145,2.297,0.918,3.289l-12.453,10.39l-3.898,3.211l-73.054-11.465l-29.653,0.078h-30.335l-72.367,11.386
		l-3.898-3.211l-12.457-10.39c-1.297-0.992-0.762-2.98,0.843-3.289l85.203-14.211h4.894v7.641h56.164v-7.641H288.323z
		 M489.072,366.92H23v-39.047h466.072V366.92z" style="fill: rgb(75, 75, 75);"></path>
</g>
</svg>
