<svg width="50" height="49" viewBox="0 0 50 49" fill="none" xmlns="http://www.w3.org/2000/svg">
<g clip-path="url(#clip0_1_263)">
<path fill-rule="evenodd" clip-rule="evenodd" d="M24.9255 0C11.1423 0 0 11.0699 0 24.7649C0 35.7121 7.13929 44.9786 17.0434 48.2583C18.2816 48.5048 18.7352 47.7254 18.7352 47.0698C18.7352 46.4957 18.6944 44.5277 18.6944 42.4773C11.7607 43.9536 10.3168 39.5251 10.3168 39.5251C9.20255 36.655 7.55153 35.9173 7.55153 35.9173C5.28214 34.4003 7.71684 34.4003 7.71684 34.4003C10.2342 34.5643 11.5551 36.9423 11.5551 36.9423C13.7832 40.7141 17.3735 39.6484 18.8179 38.9923C19.024 37.3932 19.6847 36.2862 20.3862 35.6713C14.8561 35.0972 9.03776 32.9652 9.03776 23.4526C9.03776 20.7465 10.0276 18.5325 11.5959 16.8107C11.3485 16.1958 10.4816 13.6532 11.8439 10.2502C11.8439 10.2502 13.9485 9.5941 18.6939 12.7923C20.7256 12.2502 22.8208 11.9744 24.9255 11.9721C27.0301 11.9721 29.1755 12.2594 31.1566 12.7923C35.9026 9.5941 38.0071 10.2502 38.0071 10.2502C39.3694 13.6532 38.502 16.1958 38.2546 16.8107C39.8643 18.5325 40.8133 20.7465 40.8133 23.4526C40.8133 32.9652 34.9949 35.0559 29.4235 35.6713C30.3316 36.4502 31.1153 37.926 31.1153 40.2633C31.1153 43.5843 31.0745 46.2496 31.0745 47.0693C31.0745 47.7254 31.5286 48.5048 32.7663 48.2588C42.6704 44.9781 49.8097 35.7121 49.8097 24.7649C49.8505 11.0699 38.6674 0 24.9255 0Z" fill="#24292F"/>
</g>
<defs>
<clipPath id="clip0_1_263">
<rect width="50" height="48.3051" fill="white"/>
</clipPath>
</defs>
</svg>
