<!--?xml version="1.0" encoding="utf-8"?-->
<!-- Generator: Adobe Illustrator 24.1.1, SVG Export Plug-In . SVG Version: 6.00 Build 0)  -->
<svg version="1.1" id="_x31_0" xmlns="http://www.w3.org/2000/svg" xmlns:xlink="http://www.w3.org/1999/xlink" x="0px" y="0px" viewBox="0 0 512 512" style="width: 64px; height: 64px; opacity: 1;" xml:space="preserve">
<style type="text/css">
	.st0{fill:#374149;}
</style>
<g>
	<path class="st0" d="M66.348,176.778v0.004h-0.16v136.542h379.546V176.782H67.504L66.348,176.778z M126.731,223.61
		c0-12.047,9.773-21.825,21.824-21.825c12.046,0,21.746,9.778,21.746,21.825c0,11.973-9.699,21.746-21.746,21.746
		C136.504,245.355,126.731,235.582,126.731,223.61z M251.012,280.961l0.043-0.066l0.094,0.149l47.738-76.985
		c7.426-11.894,25.988-11.894,33.414,0l38.157,61.512l20.168,32.676H261.832l0.152,0.226h-57.226l-29.558-0.086l26.546-42.726
		c7.5-11.973,26.141-11.973,33.645,0l10.84,17.461L251.012,280.961z" style="fill: rgb(75, 75, 75);"></path>
	<path class="st0" d="M492.941,512c7.199,0,13.031-5.832,13.11-13.035V0H5.949v498.965c0,7.203,5.832,13.035,13.031,13.035H492.941z
		 M48.196,37.89c0.121-0.519,0.266-1.039,0.488-1.515c0-0.078,0-0.078,0-0.153c1.516-3.562,5.078-6.062,9.168-6.062
		c4.094,0,7.578,2.5,9.094,6.062c0,0.074,0,0.074,0,0.153c0.199,0.426,0.317,0.89,0.434,1.355c0.078,0.293,0.141,0.598,0.187,0.91
		c0.07,0.476,0.137,0.957,0.137,1.445c0,5.458-4.394,9.852-9.851,9.852c-5.453,0-9.926-4.394-9.926-9.852
		c0-0.527,0.066-1.05,0.148-1.57C48.105,38.305,48.148,38.098,48.196,37.89z M91.539,37.886c0.122-0.519,0.262-1.035,0.489-1.511
		c0-0.078,0-0.078,0-0.153c1.515-3.562,5-6.062,9.09-6.062c4.094,0,7.578,2.5,9.094,6.062c0,0.074,0,0.074,0,0.153
		c0.199,0.426,0.317,0.89,0.438,1.355c0.074,0.293,0.137,0.594,0.184,0.906c0.07,0.48,0.136,0.961,0.136,1.449
		c0,5.458-4.394,9.852-9.851,9.852c-5.453,0-9.848-4.394-9.848-9.852c0-0.527,0.066-1.046,0.145-1.566
		C91.449,38.309,91.492,38.098,91.539,37.886z M134.804,37.89c0.122-0.519,0.266-1.039,0.489-1.515c0-0.078,0-0.078,0-0.153
		c1.515-3.562,5-6.062,9.094-6.062c4.09,0,7.574,2.5,9.09,6.062c0,0.074,0,0.074,0,0.153c0.531,1.137,0.758,2.422,0.758,3.71
		c0,5.458-4.394,9.852-9.847,9.852c-5.457,0-9.852-4.394-9.852-9.852c0-0.527,0.066-1.05,0.149-1.57
		C134.715,38.305,134.758,38.098,134.804,37.89z M21.101,496.848V77.141h469.794v419.707H21.101z" style="fill: rgb(75, 75, 75);"></path>
	<rect x="66.188" y="351.512" class="st0" width="312.262" height="20.687" style="fill: rgb(75, 75, 75);"></rect>
	<rect x="66.188" y="399.703" class="st0" width="267.934" height="20.691" style="fill: rgb(75, 75, 75);"></rect>
	<path class="st0" d="M390.723,141.016c8.942,0,16.214-7.274,16.214-16.215s-7.273-16.218-16.214-16.218
		c-8.942,0-16.215,7.277-16.215,16.218S381.781,141.016,390.723,141.016z" style="fill: rgb(75, 75, 75);"></path>
	<path class="st0" d="M446.566,108.582c-8.941,0-16.214,7.277-16.214,16.218s7.274,16.215,16.214,16.215
		c8.942,0,16.215-7.274,16.215-16.215S455.508,108.582,446.566,108.582z" style="fill: rgb(75, 75, 75);"></path>
	<rect x="66.188" y="108.582" class="st0" width="80.242" height="26.976" style="fill: rgb(75, 75, 75);"></rect>
</g>
</svg>
